<svg xmlns:dc="http://purl.org/dc/elements/1.1/" xmlns:cc="http://creativecommons.org/ns#" xmlns:rdf="http://www.w3.org/1999/02/22-rdf-syntax-ns#" xmlns:svg="http://www.w3.org/2000/svg" xmlns="http://www.w3.org/2000/svg" viewBox="0 0 429.67999 110.58667" height="110.58667" width="429.67999" xml:space="preserve" id="svg2" version="1.1"><metadata id="metadata8"><rdf:RDF><cc:Work rdf:about=""><dc:format>image/svg+xml</dc:format><dc:type rdf:resource="http://purl.org/dc/dcmitype/StillImage"/></cc:Work></rdf:RDF></metadata><defs id="defs6"/><g transform="matrix(1.3333333,0,0,-1.3333333,0,110.58667)" id="g10"><g transform="scale(0.1)" id="g12"><path id="path14" style="fill:#fbc76e;fill-opacity:1;fill-rule:nonzero;stroke:none" d="M 445.453,389.629 0.273438,415.32 445.316,441.113 1.33594,481.859 447.113,492.574 4.8125,548.328 430.914,544.125 11.6602,616.863 554.121,586.363 169.086,668.895 618.523,625.848 181.609,736.52 629,676.996 196.66,803.695 634.625,728.484 V 100.215 L 196.66,25.7813 629,152.48 181.609,92.9688 618.559,203.652 169.086,160.625 531.719,238.32 11.6953,213.887 456.875,286.895 5.35547,282.352 447.473,338.211 1.63281,348.828 445.453,389.629 v 0"/><path id="path16" style="fill:#fbc76e;fill-opacity:1;fill-rule:nonzero;stroke:none" d="m 2777.11,389.629 445.18,25.691 -445.04,25.793 443.97,40.746 -445.79,10.715 442.33,55.754 -426.09,-4.203 419.25,72.738 -542.48,-30.5 385.02,82.532 -449.41,-43.047 436.89,110.672 -447.36,-59.524 432.32,126.699 -437.95,-75.211 V 100.215 L 3025.9,25.7813 2593.58,152.48 3040.94,92.9688 2604.01,203.652 l 449.45,-43.027 -362.63,77.695 520.05,-24.433 -445.19,73.008 451.52,-4.543 -442.13,55.859 445.86,10.617 -443.83,40.801 v 0"/><path id="path18" style="fill:#f9a721;fill-opacity:1;fill-rule:nonzero;stroke:none" d="M 637.102,508.367 11.3555,616.934 637.102,546.871 Z"/><path id="path20" style="fill:#f9a721;fill-opacity:1;fill-rule:nonzero;stroke:none" d="M 637.102,568.563 168.816,668.93 637.102,597.781 Z"/><path id="path22" style="fill:#f9a721;fill-opacity:1;fill-rule:nonzero;stroke:none" d="M 637.102,621.137 181.344,736.586 637.102,650.016 Z"/><path id="path24" style="fill:#f9a721;fill-opacity:1;fill-rule:nonzero;stroke:none" d="M 637.102,468.602 4.51172,548.363 637.102,507.078 Z"/><path id="path26" style="fill:#f9a721;fill-opacity:1;fill-rule:nonzero;stroke:none" d="M 637.102,423.523 1.05469,481.895 637.102,461.992 Z"/><path id="path28" style="fill:#f9a721;fill-opacity:1;fill-rule:nonzero;stroke:none" d="M 637.102,416.992 V 378.586 L 0,415.352 l 637.102,1.64 v 0"/><path id="path30" style="fill:#f9a721;fill-opacity:1;fill-rule:nonzero;stroke:none" d="M 637.102,243.301 11.4258,213.887 637.102,281.23 Z"/><path id="path32" style="fill:#f9a721;fill-opacity:1;fill-rule:nonzero;stroke:none" d="M 637.102,205.41 169.086,160.625 637.102,231.719 Z"/><path id="path34" style="fill:#f9a721;fill-opacity:1;fill-rule:nonzero;stroke:none" d="M 637.102,288.73 5.05078,282.352 637.102,326.855 Z"/><path id="path36" style="fill:#f9a721;fill-opacity:1;fill-rule:nonzero;stroke:none" d="M 637.102,333.711 1.32422,348.828 637.102,372.012 Z"/><path id="path38" style="fill:#f9a721;fill-opacity:1;fill-rule:nonzero;stroke:none" d="M 637.102,674.625 196.391,803.797 637.102,696.621 Z"/><path id="path40" style="fill:#f9a721;fill-opacity:1;fill-rule:nonzero;stroke:none" d="M 637.102,153.574 181.609,92.9688 637.102,179.473 Z"/><path id="path42" style="fill:#f9a721;fill-opacity:1;fill-rule:nonzero;stroke:none" d="M 637.102,101.035 196.66,25.7813 637.102,126.426 Z"/><path id="path44" style="fill:#f9a721;fill-opacity:1;fill-rule:nonzero;stroke:none" d="m 2585.45,508.367 625.77,108.567 -625.77,-70.063 z"/><path id="path46" style="fill:#f9a721;fill-opacity:1;fill-rule:nonzero;stroke:none" d="M 2585.45,568.563 3053.74,668.93 2585.45,597.781 Z"/><path id="path48" style="fill:#f9a721;fill-opacity:1;fill-rule:nonzero;stroke:none" d="m 2585.45,621.137 455.79,115.449 -455.79,-86.57 z"/><path id="path50" style="fill:#f9a721;fill-opacity:1;fill-rule:nonzero;stroke:none" d="m 2585.45,468.602 632.62,79.761 -632.62,-41.285 z"/><path id="path52" style="fill:#f9a721;fill-opacity:1;fill-rule:nonzero;stroke:none" d="m 2585.45,423.523 636.08,58.372 -636.08,-19.903 z"/><path id="path54" style="fill:#f9a721;fill-opacity:1;fill-rule:nonzero;stroke:none" d="m 2585.45,416.992 v -38.406 l 637.13,36.766 -637.13,1.64 v 0"/><path id="path56" style="fill:#f9a721;fill-opacity:1;fill-rule:nonzero;stroke:none" d="m 2585.45,243.301 625.71,-29.414 -625.71,67.343 z"/><path id="path58" style="fill:#f9a721;fill-opacity:1;fill-rule:nonzero;stroke:none" d="m 2585.45,205.41 468.01,-44.785 -468.01,71.094 z"/><path id="path60" style="fill:#f9a721;fill-opacity:1;fill-rule:nonzero;stroke:none" d="m 2585.45,288.73 632.07,-6.378 -632.07,44.503 z"/><path id="path62" style="fill:#f9a721;fill-opacity:1;fill-rule:nonzero;stroke:none" d="m 2585.45,333.711 635.8,15.117 -635.8,23.184 z"/><path id="path64" style="fill:#f9a721;fill-opacity:1;fill-rule:nonzero;stroke:none" d="M 2585.45,674.625 3026.18,803.797 2585.45,696.621 Z"/><path id="path66" style="fill:#f9a721;fill-opacity:1;fill-rule:nonzero;stroke:none" d="M 2585.45,153.574 3040.94,92.9688 2585.45,179.473 Z"/><path id="path68" style="fill:#f9a721;fill-opacity:1;fill-rule:nonzero;stroke:none" d="M 2585.45,101.035 3025.9,25.7813 2585.45,126.426 Z"/><path id="path70" style="fill:#231f20;fill-opacity:1;fill-rule:nonzero;stroke:none" d="m 621.543,763.598 v 0 l -16.609,-2.407 V 68.1836 l 16.609,-2.4414 C 915.242,22.7344 1257.39,0 1611.02,0 c 353.65,0 695.9,22.7344 989.67,65.7813 l 16.62,2.4414 V 761.121 l -16.62,2.442 c -293.73,43.046 -635.94,65.792 -989.67,65.792 -353.65,0 -695.809,-22.746 -989.477,-65.757 v 0"/><path id="path72" style="fill:#b5dc17;fill-opacity:1;fill-rule:nonzero;stroke:none" d="m 623.34,751.328 -5.985,-0.879 V 78.9063 l 5.985,-0.879 c 293.125,-42.9101 634.65,-65.625 987.68,-65.625 353.09,0 694.72,22.7149 987.87,65.6836 l 6.02,0.8789 V 750.414 l -6.02,0.879 c -293.15,42.949 -634.74,65.66 -987.87,65.66 -353.07,0 -694.59,-22.676 -987.68,-65.625 v 0"/><path id="path74" style="fill:#960a2c;fill-opacity:1;fill-rule:nonzero;stroke:none" d="m 1611.02,802.953 c 350.07,0 688.71,-22.371 979.88,-64.672 0,-11.832 0,-635.371 0,-647.2068 -291.2,-42.3047 -629.84,-64.6679 -979.88,-64.6679 -349.98,0 -688.52,22.3632 -979.68,64.6289 0,11.8358 0,635.4488 0,647.2808 291.125,42.266 629.67,64.637 979.68,64.637 v 0"/><path id="path76" style="fill:#231f20;fill-opacity:1;fill-rule:nonzero;stroke:none" d="m 410.344,622.559 -36.406,-5.727 8.605,-35.859 c 0.172,-0.817 19.863,-84.676 19.863,-167.789 0,-82.903 -19.691,-167.95 -19.894,-168.789 l -8.371,-35.43 35.894,-5.996 c 4.473,-0.739 454.672,-74.375 1201.255,-74.375 743.23,0 1194.5,73.597 1198.99,74.336 l 35.39,5.898 -7.72,35.059 c -0.15,0.808 -18.59,86.394 -18.59,169.101 0,84.227 18.59,168.696 18.77,169.539 l 5.06,22.547 2.87,12.91 -35.86,5.664 c -4.61,0.707 -469.04,72.129 -1198.91,72.129 C 874.109,694.383 414.898,623.27 410.344,622.559 v 0"/><path id="path78" style="fill:#960a2c;fill-opacity:1;fill-rule:nonzero;stroke:none" d="m 412.27,610.32 v 0 l -23.129,-3.656 5.468,-22.777 c 0.192,-0.852 20.204,-85.657 20.204,-170.703 0,-84.7 -20.032,-170.762 -20.235,-171.641 l -5.32,-22.5 22.844,-3.84 c 4.476,-0.75 454.402,-74.207 1199.188,-74.207 742.21,0 1192.5,73.438 1196.94,74.18 l 22.52,3.758 -4.92,22.277 c -0.18,0.879 -18.89,86.973 -18.89,171.777 0,85.719 18.89,171.407 19.1,172.254 l 5.02,22.539 -22.79,3.594 c -4.61,0.711 -468.23,71.992 -1196.98,71.992 C 874.297,681.977 416.813,611.035 412.27,610.32 v 0"/><path id="path80" style="fill:#b5dc17;fill-opacity:1;fill-rule:nonzero;stroke:none" d="m 1611.29,654.527 c 677.5,0 1123.52,-61.558 1185.02,-70.539 -4.64,-23.121 -18.2,-96.875 -18.2,-171 0,-73.625 13.46,-147.519 18.03,-170.527 -60.18,-9.328 -494.71,-72.617 -1184.85,-72.617 -692.313,0 -1126.485,63.261 -1186.981,72.644 4.945,23.117 19.347,96.985 19.347,170.696 0,73.828 -14.336,146.703 -19.32,169.785 61.523,9.019 503.363,70.269 1186.954,71.558 z M 414.543,596.02 l -7.656,-1.219 1.789,-7.559 c 0.207,-0.847 20.609,-86.972 20.609,-174.058 0,-86.739 -20.402,-174.082 -20.609,-174.961 l -1.762,-7.461 7.559,-1.25 c 4.445,-0.742 451.574,-74.043 1196.817,-74.043 742.47,0 1190.14,73.261 1194.57,74.004 l 7.47,1.23 -1.65,7.383 c -0.17,0.879 -19.21,88.301 -19.21,174.902 0,87.309 19.23,174.559 19.43,175.407 l 1.68,7.488 -7.56,1.187 c -4.59,0.711 -466.33,71.825 -1194.73,71.825 C 875.676,667.504 419.066,596.734 414.543,596.02 v 0"/><path id="path82" style="fill:#d41042;fill-opacity:1;fill-rule:nonzero;stroke:none" d="m 444.047,569.039 c 6.187,-32.402 16.152,-94.023 16.152,-155.855 0,-61.895 -10.031,-124.258 -16.234,-156.895 97.008,-14.101 521.617,-69.902 1167.325,-69.902 643.95,0 1068.79,55.867 1165.41,69.902 -5.76,32.539 -15.13,94.902 -15.13,156.699 0,62.164 9.45,124.461 15.27,157.035 -98.65,13.59 -532.89,67.961 -1165.55,67.961 C 973.547,636.797 542.527,582.668 444.047,569.039 v 0"/><path id="path84" style="fill:#231f20;fill-opacity:1;fill-rule:nonzero;stroke:none" d="m 1198.38,764.922 -5.82,-0.238 0.08,-1.895 -1.35,-0.137 -44.92,-1.832 0.28,-6.34 2.38,0.106 c 0.1,-2.883 1.66,-41.152 1.8,-44.234 l -2.39,-0.102 0.26,-6.34 18.15,0.715 -0.25,6.371 -2.36,-0.101 c -0.04,0.742 -0.6,14.773 -0.71,17.25 l 18.37,0.746 1.27,-0.067 v -0.035 l 0.09,-2.066 0.03,-0.512 6.34,0.238 -0.68,16.406 -6.34,-0.273 0.07,-1.894 -1.34,-0.137 c -0.02,0 -15.38,-0.61 -18.29,-0.746 l -0.41,10 29.22,1.187 1.26,-0.07 v -0.067 l 0.09,-2.031 0.02,-0.543 6.33,0.27 -0.65,16.371 h -0.53 v 0"/><path id="path86" style="fill:#231f20;fill-opacity:1;fill-rule:nonzero;stroke:none" d="m 1272.03,753.535 c 8.84,0.301 8.91,-1.867 8.98,-4.613 v -0.371 c 0,-2.711 -0.95,-5.524 -8.15,-5.762 l -18.97,-0.613 -0.33,10.781 z m 0.91,11.93 -35.57,-1.121 0.19,-6.371 2.44,0.101 v -0.781 c 0,-0.91 0.02,-2.441 0.1,-4.914 l 1.21,-38.57 -2.34,-0.071 0.18,-6.336 18.16,0.543 -0.2,6.371 -2.36,-0.07 c -0.04,1.559 -0.41,13.527 -0.49,16.067 l 14.1,0.445 10.6,-15.762 -0.63,-0.035 0.21,-6.34 19.36,0.613 -0.22,6.336 -2.59,-0.066 -1.75,1.355 c 0,0 -8.94,12.946 -10.87,15.758 7.79,2.406 11.79,7.696 11.79,15.727 v 0.781 c -0.17,5.152 -1.66,8.949 -4.61,11.73 -3.55,3.321 -9.02,4.848 -16.71,4.61 v 0"/><path id="path88" style="fill:#231f20;fill-opacity:1;fill-rule:nonzero;stroke:none" d="m 1388.74,770.379 -5.86,-0.137 0.05,-1.898 -1.35,-0.102 -43.84,-0.98 0.15,-6.34 2.33,0.035 c 0.04,-0.918 0.18,-6.848 1,-44.234 l -2.35,-0.067 0.14,-6.34 46.7,1.051 0.86,-0.07 0.02,-2.098 6.38,0.133 -0.39,17.188 -6.36,-0.137 0.07,-2.711 -0.07,-0.508 -1.37,-0.172 c 0.02,0 -0.05,0 -30.3,-0.679 l -0.26,11.593 17.59,0.375 1.26,-0.035 0.07,-2.578 6.34,0.137 -0.38,17.082 -6.33,-0.133 0.03,-2.578 -1.42,-0.235 c 0,0 -14.58,-0.308 -17.42,-0.375 l -0.25,10.372 28.16,0.644 1.25,-0.102 0.02,-0.031 0.03,-2.613 6.37,0.172 -0.37,16.371 h -0.5 v 0"/><path id="path90" style="fill:#231f20;fill-opacity:1;fill-rule:nonzero;stroke:none" d="m 1460.39,770.176 v 0 c -16.24,-0.238 -27.9,-8.137 -27.77,-18.848 0.24,-16.098 15.9,-16.031 27.37,-15.996 11.64,0.035 14.84,-0.852 14.87,-4.203 0.11,-6.305 -9.39,-7.391 -15.03,-7.457 -9.92,-0.137 -17.09,4.508 -17.27,5.523 l 0.1,0.375 0.65,1.696 0.16,0.437 -5.76,2.985 -7.26,-16 4.89,-2.848 1.38,1.66 0.28,0.273 2.61,-1.117 c 3.83,-1.797 10.24,-4.781 20.57,-4.644 9.93,0.136 18.16,3.051 23.18,8.203 3.13,3.183 4.82,7.148 4.75,11.117 -0.23,17.25 -16.7,17.25 -28.71,17.219 -9.15,0 -13.49,0.437 -13.52,3.086 -0.05,3.793 6.23,6.742 14.63,6.843 7.83,0.137 12.83,-2.613 13.7,-3.492 l -0.03,-0.508 -0.07,-1.355 1.12,-1.016 3.23,-2.004 0.5,-0.3 7.63,16.508 -5.46,2.203 -1.18,-1.461 -0.62,-0.371 -2.54,0.714 c -3.33,1.153 -8.37,2.879 -16.4,2.778 v 0"/><path id="path92" style="fill:#231f20;fill-opacity:1;fill-rule:nonzero;stroke:none" d="m 1590.24,770.613 -17.66,-0.066 0.03,-6.371 h 2.36 c 0.02,-1.457 0.05,-13.153 0.08,-15.696 l -29.71,-0.136 -0.08,15.695 2.37,0.031 -0.03,6.344 -18.17,-0.066 0.03,-6.375 2.38,0.035 c 0,-2.817 0.17,-41.188 0.2,-44.301 h -2.37 l 0.03,-6.34 18.18,0.067 -0.04,6.371 -2.38,-0.035 c 0,1.527 -0.06,14.273 -0.06,16.914 l 29.68,0.136 0.09,-16.914 h -2.35 l 0.02,-6.336 18.18,0.067 -0.04,6.371 -2.36,-0.031 c 0,2.914 -0.2,41.179 -0.22,44.265 h 2.39 l -0.04,6.371 h -0.51 v 0"/><path id="path94" style="fill:#231f20;fill-opacity:1;fill-rule:nonzero;stroke:none" d="m 1762.87,771.055 v -1.352 l -1.36,-0.07 -44.94,0.508 -0.07,-6.336 2.37,-0.035 c -0.04,-2.848 -0.47,-41.184 -0.51,-44.27 l -2.36,0.035 -0.08,-6.371 18.21,-0.203 0.04,6.371 h -2.35 c 0.02,1.797 0.16,14.641 0.19,17.289 l 18.39,-0.207 1.25,-0.137 v -0.101 l -0.04,-1.996 v -0.543 l 6.38,-0.067 0.16,16.407 -6.33,0.066 -0.04,-1.898 -1.35,-0.071 -18.31,0.207 0.14,9.996 29.22,-0.304 1.26,-0.172 v -0.067 l -0.04,-2.031 v -0.508 l 6.35,-0.07 0.19,16.406 -6.37,0.067 v -0.543 0"/><path id="path96" style="fill:#231f20;fill-opacity:1;fill-rule:nonzero;stroke:none" d="m 1834.59,722.684 c -5.97,0.136 -10.74,1.902 -13.82,5.125 -2.89,2.98 -4.33,7.285 -4.24,12.468 0.1,5.188 1.76,9.426 4.72,12.27 3.25,3.121 8.05,4.68 14.02,4.578 5.97,-0.133 10.73,-1.895 13.83,-5.117 2.86,-2.985 4.3,-7.285 4.21,-12.473 -0.11,-5.191 -1.74,-9.422 -4.72,-12.305 -3.21,-3.085 -8.07,-4.644 -14,-4.546 z m -31.89,17.867 v 0 c -0.18,-8.102 2.4,-15.153 7.44,-20.371 5.67,-5.899 14.04,-9.149 24.22,-9.356 9.99,-0.203 18.73,2.813 24.6,8.438 5.19,4.984 8.04,11.898 8.19,20 0.15,8.101 -2.4,15.117 -7.4,20.336 -5.62,5.832 -14.25,9.187 -24.24,9.39 -19.59,0.371 -32.46,-10.781 -32.81,-28.437 v 0"/><path id="path98" style="fill:#231f20;fill-opacity:1;fill-rule:nonzero;stroke:none" d="m 1921.36,725.469 c -2.84,3.015 -4.27,7.32 -4.11,12.504 0.15,5.187 1.81,9.425 4.83,12.238 3.25,3.086 8.11,4.609 14.06,4.441 5.9,-0.172 10.66,-2 13.73,-5.254 2.87,-3.05 4.3,-7.359 4.14,-12.507 -0.14,-5.086 -1.84,-9.325 -4.86,-12.203 -3.31,-3.086 -8.13,-4.645 -14.03,-4.438 -5.94,0.164 -10.7,1.961 -13.76,5.219 z m -17.95,12.914 v 0 c -0.22,-8.106 2.26,-15.153 7.2,-20.406 5.57,-5.899 14.18,-9.321 24.18,-9.594 10,-0.301 18.77,2.613 24.67,8.168 5.25,4.953 8.14,11.832 8.41,19.933 0.22,8.102 -2.28,15.153 -7.22,20.407 -5.57,5.898 -14.17,9.32 -24.17,9.621 -19.56,0.543 -32.54,-10.473 -33.07,-28.129 v 0"/><path id="path100" style="fill:#231f20;fill-opacity:1;fill-rule:nonzero;stroke:none" d="m 2022.23,734.078 0.69,17.285 16.5,-0.644 c 5.32,-0.203 9.39,-1.797 12.07,-4.68 2.54,-2.742 3.83,-6.641 3.83,-11.59 l -0.04,-1.187 c -0.43,-11.285 -5.47,-16.606 -15.39,-16.235 l -18.26,0.711 z m -14.67,29.047 -0.07,-2.066 0.07,0.062 c -0.1,-0.437 -0.13,-1.351 -0.21,-3.32 l -0.03,-0.508 2.37,-0.102 c -0.1,-2.847 -1.59,-41.148 -1.73,-44.23 l -2.33,0.102 -0.27,-6.375 34.98,-1.356 c 16.71,-0.644 27.48,9.863 28.2,27.422 0.3,8.238 -2.14,15.426 -7.09,20.746 -5.05,5.453 -12.23,8.508 -20.78,8.844 l -33.08,1.289 -0.03,-0.508 v 0"/><path id="path102" style="fill:#ffffff;fill-opacity:1;fill-rule:nonzero;stroke:none" d="m 1190.14,769.059 -5.84,-0.243 0.08,-1.894 -1.37,-0.102 -44.87,-1.832 0.24,-6.336 2.37,0.067 c 0.1,-2.852 1.66,-41.117 1.79,-44.231 l -2.36,-0.07 0.26,-6.371 18.14,0.742 -0.24,6.336 -2.37,-0.098 c -0.03,0.743 -0.61,14.778 -0.69,17.286 l 18.37,0.75 1.27,-0.071 v -0.066 l 0.07,-2.071 0.03,-0.507 6.33,0.273 -0.64,16.371 -6.37,-0.238 0.1,-1.902 -1.35,-0.129 c -0.04,0 -15.35,-0.645 -18.3,-0.75 l -0.39,10 29.2,1.187 1.25,-0.101 v -0.036 l 0.1,-2.066 v -0.512 l 6.37,0.239 -0.67,16.406 -0.51,-0.031 v 0"/><path id="path104" style="fill:#ffffff;fill-opacity:1;fill-rule:nonzero;stroke:none" d="m 1263.75,757.699 c 8.85,0.274 8.92,-1.859 9.01,-4.609 l 0.02,-0.371 c 0,-2.742 -0.99,-5.563 -8.18,-5.762 l -18.97,-0.609 -0.35,10.777 z m 0.92,11.899 -35.55,-1.118 0.2,-6.335 2.44,0.066 -0.04,-0.746 c 0,-0.949 0.04,-2.442 0.14,-4.918 l 1.21,-38.57 -2.36,-0.067 0.2,-6.371 18.16,0.574 -0.21,6.34 -2.35,-0.07 c -0.08,1.594 -0.45,13.558 -0.51,16.097 l 14.1,0.442 10.61,-15.758 -0.63,-0.035 0.18,-6.34 19.35,0.609 -0.19,6.344 -2.58,-0.07 -1.73,1.351 c 0,0 -8.98,12.95 -10.91,15.762 7.83,2.41 11.81,7.695 11.81,15.731 l -0.02,0.781 c -0.16,5.117 -1.66,8.949 -4.61,11.691 -3.56,3.356 -9.01,4.852 -16.71,4.61 v 0"/><path id="path106" style="fill:#ffffff;fill-opacity:1;fill-rule:nonzero;stroke:none" d="m 1380.45,774.547 -5.82,-0.133 0.03,-1.898 -1.35,-0.106 -43.83,-0.98 0.13,-6.336 2.38,0.031 c 0,-0.918 0.13,-6.883 0.98,-44.266 l -2.37,-0.035 0.13,-6.371 46.72,1.051 0.84,-0.035 0.07,-2.102 6.33,0.133 -0.37,17.188 -6.37,-0.137 0.06,-2.711 -0.06,-0.504 -1.35,-0.172 c 0,0 -0.03,0 -30.31,-0.68 l -0.27,11.559 17.6,0.402 1.27,-0.062 0.05,-2.578 6.35,0.172 -0.39,17.078 -6.34,-0.164 0.07,-2.578 -1.46,-0.208 c 0,0 -14.57,-0.3 -17.4,-0.371 l -0.22,10.371 28.13,0.645 1.25,-0.137 v -0.031 l 0.07,-2.574 6.33,0.137 -0.37,16.402 h -0.51 v 0"/><path id="path108" style="fill:#ffffff;fill-opacity:1;fill-rule:nonzero;stroke:none" d="m 1452.11,774.313 v 0 c -16.21,-0.208 -27.89,-8.137 -27.74,-18.817 0.22,-16.098 15.89,-16.062 27.33,-15.996 11.66,0.035 14.85,-0.883 14.93,-4.203 0.05,-6.336 -9.4,-7.387 -15.06,-7.488 -9.9,-0.106 -17.08,4.504 -17.29,5.554 l 0.1,0.375 0.64,1.696 0.18,0.406 -5.76,3.015 -7.24,-16.035 4.87,-2.812 1.41,1.629 0.27,0.273 2.58,-1.086 c 3.83,-1.797 10.26,-4.812 20.58,-4.676 9.93,0.129 18.17,3.047 23.19,8.204 3.11,3.214 4.81,7.148 4.75,11.117 -0.25,17.285 -16.68,17.25 -28.71,17.25 -9.12,0 -13.5,0.441 -13.54,3.051 -0.03,3.828 6.27,6.777 14.69,6.882 7.79,0.102 12.81,-2.648 13.65,-3.527 l -0.04,-0.473 -0.06,-1.359 1.14,-1.016 3.24,-2 0.47,-0.304 7.63,16.504 -5.46,2.207 -1.19,-1.457 -0.61,-0.372 -2.54,0.711 c -3.32,1.153 -8.36,2.883 -16.41,2.747 v 0"/><path id="path110" style="fill:#ffffff;fill-opacity:1;fill-rule:nonzero;stroke:none" d="m 1581.97,774.785 -17.67,-0.101 0.04,-6.34 h 2.37 c 0,-1.453 0.05,-13.149 0.07,-15.692 l -29.69,-0.136 -0.07,15.691 h 2.36 l -0.04,6.371 -18.16,-0.098 0.02,-6.339 h 2.36 c 0.02,-2.813 0.21,-41.184 0.21,-44.27 h -2.38 l 0.04,-6.371 18.16,0.102 -0.01,6.339 h -2.35 c -0.02,1.528 -0.08,14.239 -0.11,16.879 l 29.7,0.137 0.1,-16.879 h -2.37 l 0.03,-6.375 18.17,0.106 -0.03,6.336 h -2.38 c 0,2.914 -0.17,41.183 -0.2,44.269 h 2.36 l -0.02,6.371 h -0.51 v 0"/><path id="path112" style="fill:#ffffff;fill-opacity:1;fill-rule:nonzero;stroke:none" d="m 1754.63,775.223 -0.04,-1.387 -1.34,-0.031 -44.94,0.508 -0.06,-6.375 2.35,-0.032 c -0.03,-2.847 -0.48,-41.148 -0.51,-44.269 l -2.33,0.035 -0.1,-6.336 18.19,-0.207 0.07,6.336 -2.37,0.035 c 0.03,1.797 0.17,14.645 0.2,17.285 l 18.37,-0.199 1.26,-0.172 v -0.066 -2.032 l -0.04,-0.507 6.37,-0.071 0.18,16.403 -6.35,0.066 -0.02,-1.894 -1.37,-0.067 -18.28,0.199 0.12,10 29.22,-0.336 1.25,-0.136 v -0.071 l -0.03,-2.031 v -0.512 l 6.38,-0.097 0.15,16.402 -6.33,0.066 v -0.507 0"/><path id="path114" style="fill:#ffffff;fill-opacity:1;fill-rule:nonzero;stroke:none" d="m 1826.31,726.855 c -5.93,0.102 -10.7,1.864 -13.82,5.086 -2.85,2.981 -4.3,7.321 -4.22,12.473 0.09,5.184 1.74,9.457 4.72,12.305 3.23,3.086 8.07,4.676 14.01,4.539 5.96,-0.102 10.74,-1.863 13.83,-5.082 2.89,-2.985 4.33,-7.289 4.21,-12.477 -0.09,-5.183 -1.73,-9.418 -4.72,-12.297 -3.21,-3.086 -8.07,-4.644 -14.01,-4.547 z m -31.89,17.868 v 0 c -0.14,-8.102 2.44,-15.153 7.46,-20.371 5.68,-5.934 14.03,-9.157 24.2,-9.356 10.02,-0.207 18.77,2.777 24.61,8.402 5.2,5.02 8.03,11.934 8.2,20.036 0.16,8.097 -2.4,15.117 -7.38,20.3 -5.63,5.864 -14.26,9.219 -24.28,9.391 -19.55,0.406 -32.44,-10.746 -32.81,-28.402 v 0"/><path id="path116" style="fill:#ffffff;fill-opacity:1;fill-rule:nonzero;stroke:none" d="m 1913.09,729.605 c -2.85,3.012 -4.28,7.352 -4.1,12.54 0.14,5.148 1.84,9.386 4.81,12.234 3.26,3.051 8.14,4.574 14.08,4.406 5.9,-0.168 10.66,-1.965 13.75,-5.25 2.85,-3.019 4.27,-7.324 4.14,-12.476 -0.18,-5.118 -1.85,-9.321 -4.89,-12.204 -3.28,-3.085 -8.12,-4.64 -14.02,-4.472 -5.94,0.168 -10.72,2 -13.77,5.222 z m -17.93,12.942 v 0 c -0.23,-8.098 2.24,-15.149 7.19,-20.402 5.58,-5.895 14.16,-9.325 24.16,-9.625 10.04,-0.274 18.79,2.605 24.7,8.203 5.24,4.945 8.15,11.832 8.38,19.929 0.24,8.102 -2.26,15.153 -7.21,20.407 -5.56,5.894 -14.13,9.32 -24.17,9.589 -19.55,0.579 -32.54,-10.472 -33.05,-28.101 v 0"/><path id="path118" style="fill:#ffffff;fill-opacity:1;fill-rule:nonzero;stroke:none" d="m 2014,738.246 0.67,17.285 16.51,-0.644 c 5.29,-0.199 9.35,-1.797 12.04,-4.711 2.54,-2.746 3.83,-6.641 3.83,-11.594 l -0.03,-1.152 c -0.45,-11.317 -5.47,-16.606 -15.39,-16.235 l -18.28,0.715 z m -14.72,29.016 -0.06,-2.071 0.06,0.102 c -0.06,-0.473 -0.13,-1.387 -0.19,-3.32 v -0.543 l 2.34,-0.067 c -0.11,-2.883 -1.6,-41.148 -1.72,-44.234 l -2.36,0.066 -0.27,-6.336 34.99,-1.359 c 16.7,-0.645 27.52,9.863 28.19,27.422 0.31,8.238 -2.13,15.391 -7.06,20.742 -5.03,5.461 -12.24,8.512 -20.79,8.848 l -33.09,1.289 -0.04,-0.539 v 0"/><path id="path120" style="fill:#231f20;fill-opacity:1;fill-rule:nonzero;stroke:none" d="m 1028.86,120.566 -0.07,-1.015 -0.24,-4.785 2.58,-0.137 0.17,-0.039 c -0.17,-3.047 -2.1,-41.1134 -2.27,-44.1994 l -2.56,0.1367 -0.32,-6.3281 16.86,-0.8789 0.32,6.3281 -2.27,0.1368 c 0.07,1.1132 0.35,6.0937 1.46,28.125 1.6,-3.5547 16.58,-37.6172 16.58,-37.6172 0,0 18.64,32.7148 20.57,36.1328 -0.19,-3.7305 -1.44,-28.125 -1.46,-28.5352 h -0.16 l -2.6,0.1367 -0.32,-6.3867 18.93,-0.9375 0.32,6.3282 -2.57,0.1367 h -0.17 c 0.15,3.0664 2.1,41.016 2.27,44.199 h 0.17 l 2.57,-0.137 0.34,6.348 -22.78,1.192 -0.32,-6.348 1.61,-0.098 -14.86,-24.9412 -11.74,26.3282 1.45,-0.059 0.3,6.328 -21.77,1.114 -0.02,-0.528 v 0"/><path id="path122" style="fill:#231f20;fill-opacity:1;fill-rule:nonzero;stroke:none" d="m 1164.3,97.5781 c 0.75,-1.7578 5.94,-13.8281 6.31,-14.7461 l -13.28,0.5469 c 0.6,1.2109 6.13,12.5 6.97,14.1992 z m -8.9,16.9139 -0.24,-5.82 1.05,-0.039 -0.68,-1.367 -19.45,-39.0433 c -0.88,-1.7188 -1.43,-2.7344 -1.7,-3.0079 h -0.12 l -2.56,0.0977 -0.27,-6.3477 17.29,-0.7031 0.23,6.3281 -0.98,0.0391 0.55,1.1133 2.95,6.2109 24.49,-1.0156 2.78,-6.5039 h 0.01 l 0.13,-0.3711 0.28,-0.6836 -1.4,0.0391 -0.26,-6.3477 18.83,-0.7812 0.28,6.3867 -2.6,0.0976 c -0.61,0 -0.61,0 -2.04,3.2813 l -0.11,0.2734 -17.28,39.9219 -0.75,1.641 0.88,-0.039 0.24,6.367 -19.52,0.781 -0.03,-0.508 v 0"/><path id="path124" style="fill:#231f20;fill-opacity:1;fill-rule:nonzero;stroke:none" d="m 1249.07,81.7578 0.55,18.0274 16.53,-0.5079 c 10.46,-0.3515 15.98,-5.996 15.98,-16.4062 v -0.957 c -0.21,-5.9571 -1.73,-10.3321 -4.59,-13.0078 -2.5,-2.3438 -6.09,-3.4571 -10.7,-3.3204 l -18.26,0.5664 z m -14.87,29.6872 -0.03,-1.054 -0.17,-4.786 2.37,-0.058 c -0.1,-2.774 -1.33,-41.1525 -1.4,-44.2775 l -2.37,0.0782 -0.19,-6.3477 34.98,-1.1133 c 16.71,-0.5078 27.42,10.0586 27.98,27.6172 0.51,17.0508 -10.74,28.8481 -28.06,29.3941 l -33.11,1.055 v -0.508 0"/><path id="path126" style="fill:#231f20;fill-opacity:1;fill-rule:nonzero;stroke:none" d="m 1381.37,109.375 -0.04,-1.387 -1.34,-0.039 -43.87,0.977 -0.14,-6.328 2.38,-0.078 c -0.07,-2.7739 -0.91,-41.1333 -0.98,-44.2192 l -2.38,0.0195 -0.13,-6.3281 46.68,-1.0547 0.88,-0.0977 -0.07,-2.1093 6.38,-0.1367 0.37,17.1875 -6.35,0.1367 -0.06,-2.5782 -0.1,-0.6445 -1.36,-0.0976 c 0,0 -26.44,0.6054 -30.3,0.7226 l 0.24,11.543 17.61,-0.4102 1.29,-0.0976 -0.09,-2.0703 v -0.5079 l 6.33,-0.1367 0.39,17.0899 -6.35,0.1367 -0.05,-2.5781 -1.46,-0.1368 -17.4,0.3711 0.23,10.4102 28.13,-0.6445 1.26,-0.1758 v -0.0586 l 0.03,0.0586 -0.08,-2.0899 -0.02,-0.5078 6.36,-0.1758 0.36,16.4062 -6.35,0.137 v -0.508 0"/><path id="path128" style="fill:#231f20;fill-opacity:1;fill-rule:nonzero;stroke:none" d="m 1486.04,108.281 -0.14,-16.2693 6.37,-0.0586 0.01,2.5 0.89,0.0391 13.94,-0.0977 -0.34,-38.9453 h -2.35 l -0.08,-6.3476 18.17,-0.1563 0.07,6.3672 h -2.37 c 0.01,1.9336 0.3,34.5313 0.34,38.9453 l 13.97,-0.0976 0.88,-0.0782 -0.04,-1.9922 V 91.582 l 6.34,-0.039 0.14,16.777 -6.35,0.039 -0.03,-2.441 -0.85,-0.098 -41.36,0.371 -0.86,0.098 0.03,1.934 v 0.507 l -6.38,0.059 v -0.508 0"/><path id="path130" style="fill:#231f20;fill-opacity:1;fill-rule:nonzero;stroke:none" d="m 1595.18,64.707 v 0 c -2.91,2.9102 -4.47,7.2071 -4.47,12.4024 0,5.1562 1.56,9.4531 4.47,12.3633 3.17,3.164 7.97,4.8242 13.94,4.8242 5.92,0 10.76,-1.6602 13.93,-4.8242 2.91,-2.9493 4.45,-7.2071 4.45,-12.4024 -0.01,-10.7812 -6.87,-17.1875 -18.38,-17.1875 -5.97,0 -10.78,1.6602 -13.94,4.8242 z m 13.94,41.445 c -10.03,0 -18.7,-3.144 -24.45,-8.8864 -5.08,-5.1172 -7.79,-12.0508 -7.79,-20.1562 v -0.0391 c 0,-8.0664 2.71,-15.0781 7.83,-20.1953 5.8,-5.8008 14.24,-8.8477 24.41,-8.8867 10,0 18.68,3.1836 24.44,8.9258 5.08,5.0781 7.79,12.0507 7.79,20.1562 0,8.9453 -3.24,16.4063 -9.35,21.6211 -5.73,4.8826 -13.66,7.4606 -22.88,7.4606 v 0"/><path id="path132" style="fill:#231f20;fill-opacity:1;fill-rule:nonzero;stroke:none" d="m 1756.02,65.625 v 0 c -2.99,2.8711 -4.57,7.1094 -4.65,12.2852 v 0.3906 c 0,5 1.51,9.1797 4.3,12.0508 3.09,3.2226 7.91,4.9609 13.85,5.0195 5.95,0.0977 10.77,-1.4844 13.99,-4.6094 2.95,-2.8711 4.58,-7.1484 4.64,-12.3242 0.08,-5.1562 -1.43,-9.4727 -4.3,-12.4414 -3.12,-3.2031 -7.9,-4.9219 -13.86,-5.0195 -5.94,-0.0782 -10.79,1.5234 -13.97,4.6484 z m 13.32,41.621 v 0 c -10,-0.117 -18.64,-3.398 -24.3,-9.2187 -5.02,-5.1953 -7.63,-12.207 -7.52,-20.2734 0.12,-8.9453 3.48,-16.3672 9.65,-21.4844 5.83,-4.8242 13.77,-7.3047 22.99,-7.1679 9.22,0.1367 17.11,2.8125 22.77,7.8125 6.06,5.2734 9.18,12.7734 9.05,21.7187 -0.12,8.9453 -3.46,16.3672 -9.64,21.4842 -5.81,4.785 -13.76,7.266 -23,7.129 v 0"/><path id="path134" style="fill:#231f20;fill-opacity:1;fill-rule:nonzero;stroke:none" d="m 1876.63,96.8359 c 8.84,0.1954 8.86,-1.9726 8.94,-4.707 v -0.3125 c 0,-2.8711 -0.99,-5.5859 -8.2,-5.7617 l -18.99,-0.4492 -0.23,10.7812 z m 1.01,11.8551 -35.59,-0.8 0.16,-6.348 2.35,0.039 1.05,-44.2382 -2.38,-0.0586 0.13,-6.3477 18.18,0.4102 -0.14,6.3671 -2.37,-0.0585 c -0.04,1.5625 -0.31,13.5156 -0.37,16.0937 l 14.1,0.3125 10.47,-15.8789 h -0.61 l 0.14,-6.3281 19.35,0.4297 -0.13,6.3476 -2.62,-0.039 -1.69,1.3671 c 0,0 -8.88,13.0469 -10.78,15.8594 7.9,2.3633 11.93,7.6563 11.93,15.8203 v 0.586 c -0.12,5.039 -1.63,8.9844 -4.5,11.7184 -3.57,3.399 -9.02,4.961 -16.68,4.746 v 0"/><path id="path136" style="fill:#231f20;fill-opacity:1;fill-rule:nonzero;stroke:none" d="m 1973.36,99.7461 c 5.3,0.1758 9.46,-1.1133 12.35,-3.8281 2.93,-2.7539 4.53,-6.9141 4.71,-12.4414 l 0.01,-1.211 c 0,-10.5078 -4.64,-15.7617 -14.21,-16.0742 0,0 -15.38,-0.5078 -18.29,-0.5664 l -1.08,33.5742 z m 0.4,11.6989 -33.11,-1.093 0.19,-6.329 2.39,0.059 c 0.04,-0.977 0.23,-7.1093 1.45,-44.2187 l -2.37,-0.0781 0.2,-6.3672 34.98,1.1523 c 16.71,0.5469 26.73,11.7969 26.17,29.3555 -0.28,8.2031 -3.25,15.1758 -8.58,20.1562 -5.44,5.098 -12.81,7.637 -21.32,7.363 v 0"/><path id="path138" style="fill:#231f20;fill-opacity:1;fill-rule:nonzero;stroke:none" d="m 2093.48,118.027 -5.82,-0.254 0.1,-1.894 -1.37,-0.137 -43.82,-1.816 0.27,-6.387 2.38,0.098 c 0.1,-2.735 1.72,-41.1331 1.86,-44.219 l -2.37,-0.0782 0.28,-6.3671 46.66,1.9726 0.85,-0.039 0.1,-2.0704 6.34,0.2344 -0.71,17.1875 -6.35,-0.2734 0.12,-2.5781 v -0.2344 l -0.04,-0.3711 -1.39,-0.2344 -30.29,-1.25 -0.49,11.543 17.6,0.7617 1.25,-0.0391 v -0.0781 l 0.1,-1.9922 v -0.5078 l 6.37,0.2734 -0.75,17.0508 -6.33,-0.2343 0.1,-2.5782 -1.43,-0.2343 c 0,0 -14.57,-0.6446 -17.4,-0.7618 l -0.43,10.3905 28.11,1.172 1.32,-0.059 0.03,-2.109 0.03,-0.547 6.34,0.274 -0.69,16.406 -0.53,-0.02 v 0"/><path id="path140" style="fill:#231f20;fill-opacity:1;fill-rule:nonzero;stroke:none" d="m 2173.13,108.047 c 4.32,0.234 6.87,-0.137 8.05,-1.172 l 1.04,-3.262 v -0.586 c 0,-2.597 -0.95,-5.3512 -8.04,-5.7223 0,0 -15.99,-0.8008 -18.98,-0.9766 l -0.54,10.7809 z m 0.64,11.933 v 0 l -35.5,-1.835 0.33,-6.368 2.35,0.137 c 0.15,-2.773 2.16,-41.1132 2.3,-44.1992 l -2.35,-0.1367 0.32,-6.3281 18.16,0.9375 -0.34,6.3477 -2.36,-0.1368 c -0.08,1.6993 -0.7,13.5547 -0.84,16.0938 l 14.08,0.7226 10.94,-15.5664 -0.64,-0.039 0.34,-6.3281 19.33,1.0156 -0.35,6.3281 -2.58,-0.1367 -1.74,1.3281 c 0,0 -9.24,12.7734 -11.23,15.5274 7.62,2.539 11.48,7.7343 11.48,15.4882 l -0.04,1.289 c -0.25,5.117 -1.81,8.906 -4.82,11.602 -3.64,3.281 -9.14,4.668 -16.84,4.257 v 0"/><path id="path142" style="fill:#ffffff;fill-opacity:1;fill-rule:nonzero;stroke:none" d="m 1020.64,124.688 -0.05,-1.036 -0.23,-4.785 2.57,-0.137 0.17,-0.039 c -0.17,-3.046 -2.12,-41.1129 -2.27,-44.1988 l -2.58,0.1367 -0.3,-6.3281 16.84,-0.8789 0.34,6.3672 -2.27,0.0976 c 0.07,1.1133 0.32,6.0938 1.46,28.1253 1.59,-3.555 16.57,-37.6175 16.57,-37.6175 0,0 18.65,32.7149 20.58,36.1325 -0.21,-3.7301 -1.46,-28.1247 -1.46,-28.5348 h -0.17 l -2.61,0.1367 -0.3,-6.3867 18.91,-0.9375 0.34,6.3281 -2.58,0.1367 -0.17,0.0391 c 0.14,3.0273 2.11,40.9764 2.27,44.1604 h 0.17 l 2.58,-0.137 0.34,6.348 -22.78,1.191 -0.34,-6.348 1.63,-0.097 -14.88,-24.9416 -11.73,26.3286 1.44,-0.059 0.33,6.328 -21.8,1.113 -0.02,-0.507 v 0"/><path id="path144" style="fill:#ffffff;fill-opacity:1;fill-rule:nonzero;stroke:none" d="m 1156.09,101.68 c 0.76,-1.7581 5.93,-13.8284 6.32,-14.7464 l -13.28,0.5469 c 0.58,1.2109 6.13,12.5 6.96,14.1995 z m -8.9,16.914 -0.23,-5.821 1.05,-0.039 -0.68,-1.367 -19.46,-39.0428 c -0.88,-1.7187 -1.44,-2.7344 -1.69,-3.0078 h -0.14 l -2.54,0.0977 -0.27,-6.3477 17.28,-0.7031 0.24,6.3281 -0.98,0.0781 0.55,1.0743 2.93,6.2109 24.5,-1.0156 2.76,-6.5039 h 0.04 l 0.14,-0.3711 0.26,-0.6836 -1.4,0.039 -0.26,-6.3476 18.84,-0.7813 0.25,6.3867 -2.57,0.0977 c -0.63,0.0195 -0.63,0.0195 -2.05,3.2813 l -0.11,0.2734 -17.28,39.9223 -0.74,1.64 0.86,-0.039 0.25,6.367 -19.51,0.782 -0.04,-0.508 v 0"/><path id="path146" style="fill:#ffffff;fill-opacity:1;fill-rule:nonzero;stroke:none" d="m 1240.84,85.8594 0.58,18.0276 16.51,-0.508 c 10.47,-0.352 16,-5.9962 16,-16.3673 v -0.9961 c -0.21,-5.957 -1.74,-10.332 -4.61,-13.0078 -2.48,-2.3437 -6.07,-3.457 -10.68,-3.3203 l -18.26,0.5664 z m -14.86,29.6876 -0.04,-1.055 -0.14,-4.785 2.37,-0.059 c -0.1,-2.773 -1.33,-41.1519 -1.43,-44.2769 l -2.34,0.0781 -0.2,-6.3476 34.97,-1.0743 c 16.7,-0.5468 27.44,10.0196 27.98,27.5782 0.53,17.0505 -10.74,28.8475 -28.05,29.3945 l -33.1,1.055 -0.02,-0.508 v 0"/><path id="path148" style="fill:#ffffff;fill-opacity:1;fill-rule:nonzero;stroke:none" d="m 1373.15,113.477 -0.01,-1.387 -1.36,-0.039 -43.86,0.976 -0.14,-6.328 2.38,-0.078 c -0.08,-2.734 -0.94,-41.1327 -0.99,-44.2187 l -2.37,0.0196 -0.15,-6.3281 46.69,-1.0547 0.86,-0.0977 -0.04,-2.1094 6.35,-0.1367 0.39,17.1875 -6.35,0.1367 -0.05,-2.5781 -0.1,-0.6445 -1.39,-0.0977 c 0,0 -26.41,0.6055 -30.29,0.7227 l 0.25,11.5429 17.61,-0.4101 1.3,-0.0977 -0.1,-2.0703 v -0.5078 l 6.34,-0.1367 0.38,17.0898 -6.35,0.1368 -0.06,-2.5782 -1.46,-0.1367 -17.38,0.3711 0.23,10.41 28.13,-0.644 1.26,-0.176 v -0.059 l 0.03,0.059 -0.1,-2.09 v -0.5078 l 6.35,-0.1367 0.37,16.3675 -6.35,0.175 -0.02,-0.546 v 0"/><path id="path150" style="fill:#ffffff;fill-opacity:1;fill-rule:nonzero;stroke:none" d="m 1477.84,112.383 -0.14,-16.2697 6.35,-0.0586 0.03,2.5 0.85,0.0781 13.96,-0.1367 -0.34,-38.9453 h -2.33 l -0.08,-6.3477 18.17,-0.1562 0.07,6.3672 h -2.37 c 0,1.9336 0.3,34.5312 0.34,38.9453 l 13.96,-0.0977 0.88,-0.0781 -0.04,-1.9922 -0.01,-0.5078 6.36,-0.0391 0.14,16.7775 -6.35,0.039 -0.03,-2.441 -0.85,-0.098 -41.39,0.371 -0.84,0.098 0.02,1.933 0.01,0.547 -6.37,0.02 v -0.508 0"/><path id="path152" style="fill:#ffffff;fill-opacity:1;fill-rule:nonzero;stroke:none" d="m 1586.98,68.8086 v 0 c -2.91,2.9102 -4.48,7.207 -4.48,12.4023 0,5.1563 1.57,9.4532 4.48,12.3633 3.16,3.1641 7.97,4.8242 13.94,4.8242 5.92,0 10.75,-1.6601 13.91,-4.8242 2.93,-2.9492 4.45,-7.207 4.45,-12.4023 0,-10.7813 -6.87,-17.1875 -18.36,-17.1875 -5.97,0 -10.78,1.6601 -13.94,4.8242 z m 13.94,41.4454 c -10.04,0 -18.71,-3.145 -24.45,-8.887 -5.1,-5.0779 -7.79,-12.0506 -7.79,-20.1561 v -0.039 c 0,-8.0664 2.71,-15.0781 7.83,-20.1953 5.8,-5.8008 14.24,-8.8477 24.39,-8.8868 10.01,0 18.69,3.1836 24.44,8.9258 5.09,5.0782 7.79,12.0508 7.79,20.1563 0,8.9453 -3.23,16.4062 -9.34,21.6211 -5.72,4.883 -13.65,7.461 -22.87,7.461 v 0"/><path id="path154" style="fill:#ffffff;fill-opacity:1;fill-rule:nonzero;stroke:none" d="m 1747.82,69.7266 v 0 c -2.99,2.8711 -4.57,7.1093 -4.65,12.2851 l -0.02,0.3906 c 0,5 1.5,9.1797 4.3,12.0899 3.12,3.1836 7.93,4.9219 13.86,4.9805 5.96,0.0976 10.78,-1.4844 14,-4.6094 2.95,-2.8711 4.58,-7.1485 4.64,-12.3047 0.07,-5.1758 -1.43,-9.4922 -4.3,-12.4609 -3.13,-3.2032 -7.9,-4.9219 -13.87,-5.0196 -5.94,-0.0781 -10.78,1.5235 -13.96,4.6485 z m 13.32,41.6404 v 0 c -10,-0.137 -18.64,-3.418 -24.3,-9.238 -5.02,-5.1954 -7.64,-12.1681 -7.53,-20.2735 0.14,-8.9453 3.47,-16.3672 9.66,-21.4844 5.82,-4.8242 13.77,-7.3047 22.99,-7.168 9.22,0.1367 17.11,2.8125 22.77,7.8125 6.04,5.2735 9.18,12.7735 9.04,21.7188 -0.13,8.9453 -3.45,16.3672 -9.64,21.4846 -5.8,4.785 -13.77,7.265 -22.99,7.148 v 0"/><path id="path156" style="fill:#ffffff;fill-opacity:1;fill-rule:nonzero;stroke:none" d="m 1868.42,100.938 c 8.85,0.195 8.88,-1.9732 8.95,-4.7075 V 95.918 c 0,-2.8711 -0.99,-5.586 -8.2,-5.7617 l -18.99,-0.4493 -0.23,10.781 z m 1,11.894 -35.58,-0.84 0.15,-6.347 2.36,0.039 1.04,-44.2387 -2.37,-0.0586 0.14,-6.3476 18.17,0.4101 -0.13,6.3672 -2.37,-0.0586 c -0.04,1.5625 -0.31,13.5156 -0.38,16.0938 l 14.11,0.3125 10.46,-15.8789 h -0.6 l 0.14,-6.3282 19.35,0.4297 -0.16,6.3477 -2.59,-0.0391 -1.71,1.3672 c 0,0 -8.86,13.0469 -10.77,15.8594 7.91,2.3633 11.94,7.6562 11.94,15.8203 v 0.5859 c -0.14,5.0389 -1.63,8.9849 -4.5,11.7189 -3.57,3.398 -9.03,4.961 -16.7,4.785 v 0"/><path id="path158" style="fill:#ffffff;fill-opacity:1;fill-rule:nonzero;stroke:none" d="m 1965.16,103.848 c 5.28,0.175 9.45,-1.114 12.33,-3.828 2.94,-2.7544 4.55,-6.9145 4.72,-12.4419 l 0.01,-1.2109 c 0,-10.5078 -4.66,-15.7617 -14.22,-16.0742 0,0 -15.36,-0.5078 -18.27,-0.5664 l -1.09,33.5744 z m 0.4,11.699 -33.11,-1.094 0.19,-6.328 2.38,0.059 c 0.04,-0.977 0.24,-7.11 1.45,-44.2387 l -2.36,-0.0586 0.2,-6.3672 34.98,1.1524 c 16.71,0.5469 26.71,11.7969 26.14,29.3554 -0.25,8.2032 -3.23,15.1757 -8.57,20.1567 -5.43,5.097 -12.79,7.636 -21.3,7.363 v 0"/><path id="path160" style="fill:#ffffff;fill-opacity:1;fill-rule:nonzero;stroke:none" d="m 2085.28,122.129 -5.82,-0.254 0.08,-1.895 -1.35,-0.136 -43.82,-1.817 0.26,-6.386 2.39,0.097 c 0.09,-2.734 1.72,-41.1325 1.85,-44.2185 l -2.36,-0.0781 0.27,-6.3672 46.65,1.9727 0.87,-0.0391 0.1,-2.0703 6.34,0.2344 -0.72,17.1875 -6.36,-0.2735 0.13,-2.5781 v -0.2344 l -0.04,-0.3711 -1.4,-0.2343 -30.29,-1.25 -0.47,11.5429 17.59,0.7618 1.25,-0.0391 v -0.0391 l 0.08,-2.0312 0.02,-0.5078 6.35,0.2734 -0.72,17.0511 -6.33,-0.235 0.1,-2.5778 -1.43,-0.2344 c 0,0 -14.57,-0.625 -17.42,-0.7617 l -0.41,10.3909 28.1,1.172 1.32,-0.059 0.03,-2.109 0.04,-0.547 6.34,0.273 -0.71,16.406 -0.51,-0.019 v 0"/><path id="path162" style="fill:#ffffff;fill-opacity:1;fill-rule:nonzero;stroke:none" d="m 2164.94,112.148 c 4.3,0.235 6.84,-0.136 8.01,-1.171 l 1.07,-3.262 v -0.586 c 0,-2.598 -0.95,-5.352 -8.04,-5.723 0,0 -15.99,-0.801 -18.98,-0.976 l -0.54,10.781 z m 0.63,11.934 v 0 l -35.51,-1.836 0.34,-6.367 2.34,0.137 c 0.17,-2.774 2.15,-41.1137 2.3,-44.1996 l -2.36,-0.1367 0.33,-6.3281 18.17,0.9375 -0.35,6.3476 -2.37,-0.1367 c -0.07,1.6992 -0.7,13.5547 -0.82,16.0938 l 14.07,0.7226 10.95,-15.5664 -0.64,-0.0391 0.34,-6.3281 19.32,1.0156 -0.35,6.3282 -2.57,-0.1368 -1.76,1.3282 c 0,0 -9.22,12.7734 -11.21,15.5273 7.59,2.5391 11.48,7.7344 11.48,15.4887 l -0.04,1.289 c -0.26,5.117 -1.81,8.906 -4.84,11.601 -3.63,3.281 -9.12,4.668 -16.82,4.258 v 0"/><path id="path164" style="fill:#960a2c;fill-opacity:1;fill-rule:nonzero;stroke:none" d="m 1270.5,525.18 h -68.41 c 0,0 0,-77.758 0,-98.325 -20.97,-0.039 -108.93,-0.078 -129.94,-0.109 0,20.606 0,98.434 0,98.434 h -82.404 c 0,0 0,-77.621 0,-98.325 -19.625,0.399 -38.773,1.719 -43.519,2.09 l -23.051,2.618 v -34.571 l 0.039,-50.469 21.281,1.817 c 4.41,0.312 24.609,1.699 45.25,2.176 0,-20.672 0,-97.078 0,-97.078 h 82.404 c 0,0 0,76.941 0,97.48 21.01,-0.031 108.97,-0.098 129.94,-0.098 0,-20.507 0,-97.382 0,-97.382 h 82.41 V 525.18 h -14 v 0"/><path id="path166" style="fill:#960a2c;fill-opacity:1;fill-rule:nonzero;stroke:none" d="m 2078.56,513.719 -10.23,-2.879 v -79.219 c 19.86,7.43 62.78,15.867 99.93,17.625 0,-24.871 0,-194.793 0,-194.793 h 82.39 c 0,0 0,169.922 0,194.832 37.27,-0.437 64.95,-5.555 102.36,-17.187 l -0.06,79.082 -10.62,2.644 c -21.13,5.219 -57.75,12.168 -131.74,12.168 -57.25,0 -104.16,-4.371 -132.03,-12.273 v 0"/><path id="path168" style="fill:#960a2c;fill-opacity:1;fill-rule:nonzero;stroke:none" d="m 1766.97,512.875 -10.34,-2.777 -0.03,-10.746 c 0,0 0,-52.508 0,-72.125 -17.18,0 -64.71,0 -64.71,0 l 0.07,-75.254 c 0,0 47.48,0 64.67,0 -0.03,-19.551 -0.14,-82.032 -0.14,-82.032 l 10.48,-2.843 c 7.86,-2.098 50.91,-12.645 129.17,-12.645 80.31,0 117.42,9.324 129.63,12.402 l 11.75,2.95 0.04,10.957 -0.15,66.668 -25.71,-6.707 c -1.7,-0.481 -38.65,-10.235 -115.89,-10.235 -20.88,0 -39.87,0.606 -56.78,1.825 0,7.863 0,11.359 0,19.589 5.74,0.032 11.6,0.071 11.6,0.071 40.61,0.203 96.17,0.507 120.9,-1.965 l 0.33,-0.028 20.82,-1.125 -0.14,81.79 -23.25,-0.95 -0.4,-0.039 c -31.31,-3.047 -86.98,-2.676 -123.83,-2.429 0,0 -3.49,0 -6.03,0.027 0,8.574 0,12.539 0,20.742 14.3,1.016 34.06,1.965 59.31,1.965 88.99,0 140.61,-15.461 140.61,-15.461 v 75.969 l -12.25,3.086 c -12.03,3.047 -48.73,12.437 -127.95,12.437 -80.9,0 -126.79,-11.758 -131.78,-13.117 v 0"/><path id="path170" style="fill:#960a2c;fill-opacity:1;fill-rule:nonzero;stroke:none" d="m 2395.53,516.469 -11.27,-2.27 v -76.437 l 16.82,3.488 c 0.61,0.105 61.76,12.539 121.39,12.371 6.66,0 13.22,-0.234 19.78,-0.437 -42.91,-31.965 -157.99,-117.579 -157.99,-117.579 v -65.722 l 10.55,-2.649 c 2.07,-0.535 50.95,-12.644 132.81,-12.918 62.54,-0.136 124.53,12 127.13,12.539 l 11.29,2.247 v 76.425 l -16.82,-3.457 c -0.62,-0.136 -61.81,-12.57 -121.4,-12.402 -6.68,0.039 -13.24,0.273 -19.81,0.449 42.93,31.922 158.03,117.606 158.03,117.606 v 65.695 l -10.57,2.676 c -2.03,0.508 -50.95,12.613 -132.81,12.847 -62.54,0.204 -124.53,-11.964 -127.13,-12.472 v 0"/><path id="path172" style="fill:#960a2c;fill-opacity:1;fill-rule:nonzero;stroke:none" d="m 1388.38,512.875 -10.33,-2.777 -0.04,-10.746 c 0,0 0,-52.508 0,-72.125 -17.18,0 -64.7,0 -64.7,0 l 0.07,-75.254 c 0,0 47.48,0 64.67,0 -0.04,-19.551 -0.13,-82.032 -0.13,-82.032 l 10.48,-2.843 c 7.85,-2.098 50.9,-12.645 129.18,-12.645 80.29,0 117.41,9.324 129.6,12.402 l 11.8,2.95 v 10.957 l -0.14,66.668 -25.69,-6.707 c -1.73,-0.481 -38.65,-10.235 -115.92,-10.235 -20.88,0 -39.86,0.606 -56.78,1.825 0,7.863 0,11.359 0,19.589 5.77,0.032 11.6,0.071 11.6,0.071 40.6,0.203 96.2,0.507 120.9,-1.965 l 0.34,-0.028 20.82,-1.125 -0.14,81.79 -23.26,-0.95 -0.4,-0.039 c -31.28,-3.047 -86.98,-2.676 -123.82,-2.429 0,0 -3.5,0 -6.04,0.027 0,8.574 0,12.539 0,20.742 14.3,1.016 34.07,1.965 59.32,1.965 88.98,0 140.6,-15.461 140.6,-15.461 v 75.969 l -12.24,3.086 c -12.05,3.047 -48.74,12.437 -127.95,12.437 -80.92,0 -126.81,-11.758 -131.8,-13.117 v 0"/><path id="path174" style="fill:#960a2c;fill-opacity:1;fill-rule:nonzero;stroke:none" d="m 621.98,512.91 -4.097,-1.086 -10.512,-2.715 V 350.313 c 0,0 174.563,0 198.746,0 0,-8.274 0,-11.758 0,-19.688 -13.133,-0.82 -31.906,-1.523 -57.875,-1.66 -70.262,-0.379 -115.547,10.195 -116.054,10.332 l -24.305,6.504 0.066,-77.988 15,-3.418 c 6.996,-1.875 47.539,-11.465 125.664,-11.465 77.996,0 118.418,9.59 125.723,11.523 l 4.082,1.152 10.117,2.918 v 157.688 c 0,0 -194.121,0 -198.762,0 0,8.535 0,12.363 0,20.43 13.997,1.054 33.387,2 58.332,2 82.5,0 140.465,-14.911 140.465,-14.911 l -0.07,75.622 -10.402,2.742 c -1.965,0.508 -48.813,12.578 -130.09,12.578 -60.645,0 -104.86,-6.102 -126.028,-11.762 v 0"/><path id="path176" style="fill:#231f20;fill-opacity:1;fill-rule:nonzero;stroke:none" d="m 2371.72,540.633 -11.27,-2.235 v -76.437 l 16.84,3.457 c 0.61,0.098 61.78,12.578 121.39,12.41 6.7,-0.035 13.24,-0.269 19.82,-0.476 -42.95,-31.934 -158.05,-117.586 -158.05,-117.586 v -65.723 l 10.57,-2.637 c 2.03,-0.547 50.94,-12.648 132.79,-12.89 62.54,-0.196 124.53,11.972 127.15,12.519 l 11.27,2.227 v 76.445 l -16.8,-3.457 c -0.62,-0.137 -61.79,-12.578 -121.4,-12.414 -6.72,0.031 -13.24,0.273 -19.81,0.441 42.91,31.961 158.01,117.618 158.01,117.618 v 65.687 l -10.55,2.68 c -2.05,0.508 -50.95,12.644 -132.81,12.847 -62.54,0.2 -124.53,-11.968 -127.15,-12.476 v 0"/><path id="path178" style="fill:#231f20;fill-opacity:1;fill-rule:nonzero;stroke:none" d="m 2053.73,537.82 -10.17,-2.879 v -79.289 c 20.9,8.067 66.82,16.852 99.92,17.735 0,-24.91 0,-194.832 0,-194.832 h 82.4 c 0,0 0,169.922 0,194.832 38.95,-0.949 74.85,-7.871 102.29,-17.227 v 79.153 l -10.63,2.613 c -21.11,5.219 -57.73,12.168 -131.71,12.168 -57.3,0 -104.2,-4.375 -132.1,-12.274 v 0"/><path id="path180" style="fill:#231f20;fill-opacity:1;fill-rule:nonzero;stroke:none" d="m 1244.51,549.313 h -68.44 c 0,0 0,-77.79 0,-98.368 -20.99,0 -108.94,-0.066 -129.92,-0.066 0,20.609 0,98.398 0,98.398 h -82.4 c 0,0 0,-77.617 0,-98.332 -19.645,0.41 -38.777,1.758 -43.52,2.102 l -23.05,2.605 v -34.558 l 0.031,-50.508 21.305,1.894 c 19.437,1.29 34.117,1.895 45.234,2.129 0,-20.703 0,-97.07 0,-97.07 h 82.4 c 0,0 0,76.941 0,97.449 20.98,0 108.93,0 129.92,0 0,-20.508 0,-97.449 0,-97.449 h 82.43 v 271.774 h -13.99 v 0"/><path id="path182" style="fill:#231f20;fill-opacity:1;fill-rule:nonzero;stroke:none" d="m 1741.04,536.941 -10.21,-2.851 c 0,0 0,-63.145 0,-82.774 -17.21,0 -64.69,0 -64.69,0 v -75.242 c 0,0 47.48,0 64.69,0 -0.02,-19.562 -0.12,-82.09 -0.12,-82.09 l 10.6,-2.812 c 7.97,-2.109 51.53,-12.617 129.05,-12.617 80.48,0 117.51,9.355 129.67,12.441 l 11.66,2.949 0.03,77.559 c 0,0 -65.91,-16.914 -141.72,-16.914 -20.87,0 -39.85,0.644 -56.76,1.824 0,7.863 0,11.387 0,19.621 5.53,0 11.22,0.039 11.22,0.039 40.7,0.235 96.46,0.547 121.27,-1.972 l 0.31,-0.032 20.78,-1.121 v 81.824 l -23.36,-0.984 -0.37,-0.031 c -31.29,-3.047 -86.94,-2.672 -123.75,-2.442 0,0 -3.53,0 -6.1,0.039 0,8.575 0,12.54 0,20.743 14.26,1.015 33.99,1.968 59.31,1.968 93.49,0 140.58,-16.343 140.58,-16.343 v 76.847 l -12.15,3.082 c -12.03,3.086 -48.67,12.442 -128.03,12.442 -83.92,0 -129.98,-12.61 -131.91,-13.153 v 0"/><path id="path184" style="fill:#231f20;fill-opacity:1;fill-rule:nonzero;stroke:none" d="m 1362.47,536.941 -10.22,-2.851 c 0,0 0,-63.145 0,-82.774 -17.19,0 -64.7,0 -64.7,0 v -75.242 c 0,0 47.51,0 64.7,0 -0.02,-19.562 -0.13,-82.09 -0.13,-82.09 l 10.63,-2.812 c 7.95,-2.109 51.5,-12.617 129.03,-12.617 80.49,0 117.5,9.355 129.67,12.441 l 11.66,2.949 0.04,77.559 c 0,0 -65.91,-16.914 -141.72,-16.914 -20.88,0 -39.84,0.644 -56.78,1.824 0,7.863 0,11.387 0,19.621 5.57,0 11.23,0.039 11.23,0.039 40.71,0.235 96.47,0.547 121.27,-1.972 l 0.32,-0.032 20.77,-1.121 v 81.824 l -23.35,-0.984 -0.37,-0.031 c -31.29,-3.047 -86.96,-2.672 -123.75,-2.442 0,0 -3.54,0 -6.1,0.039 0,8.575 0,12.54 0,20.743 14.26,1.015 33.99,1.968 59.3,1.968 93.5,0 140.61,-16.343 140.61,-16.343 v 76.847 l -12.15,3.082 c -12.05,3.086 -48.69,12.442 -128.05,12.442 -83.93,0 -129.98,-12.61 -131.91,-13.153 v 0"/><path id="path186" style="fill:#231f20;fill-opacity:1;fill-rule:nonzero;stroke:none" d="m 597.359,537.52 -4.121,-1.055 -10.472,-2.711 V 374.922 c 0,0 174.531,0 198.726,0 0,-8.242 0,-11.758 0,-19.66 -13.152,-0.809 -31.89,-1.563 -57.859,-1.688 -70.266,-0.351 -115.547,10.235 -116.09,10.371 l -24.273,6.504 0.07,-78.027 14.98,-3.43 c 7.024,-1.863 47.524,-11.453 125.657,-11.453 78.027,0 118.425,9.59 125.75,11.524 l 4.066,1.191 10.117,2.91 v 157.645 c 0,0 -194.101,0.031 -198.777,0.031 0,8.515 0,12.344 0,20.41 14.012,1.09 33.383,2 58.363,2 82.504,0 140.449,-14.91 140.449,-14.91 l -0.05,75.621 -10.442,2.742 c -1.949,0.508 -48.789,12.574 -130.09,12.574 -60.605,0 -104.84,-6.066 -126.004,-11.757 v 0"/><path id="path188" style="fill:#ffffff;fill-opacity:1;fill-rule:nonzero;stroke:none" d="m 2628.25,526.703 c 0,0 -48.34,12.203 -129.42,12.442 -61.85,0.168 -124.39,-12.235 -124.39,-12.235 v -47.793 c 0,0 62.4,12.879 124.26,12.676 22.34,-0.07 42.2,-1.051 59.29,-2.512 L 2374.44,352.754 v -47.793 c 0,0 48.34,-12.207 129.41,-12.481 61.88,-0.156 124.4,12.274 124.4,12.274 v 47.793 c 0,0 -62.41,-12.879 -124.26,-12.703 -22.34,0.058 -42.2,1.074 -59.25,2.5 l 183.51,136.566 v 47.793 0"/><path id="path190" style="fill:#ffffff;fill-opacity:1;fill-rule:nonzero;stroke:none" d="m 2314.19,524.332 c -24.21,6 -61.02,11.762 -128.36,11.762 -59.44,0 -103.36,-4.645 -128.28,-11.731 v -49.211 l 7.36,2.469 c 12.2,3.969 48,9.121 92.58,10.274 V 292.559 h 54.41 V 487.93 c 45.91,-1.153 83.77,-7.223 95.21,-10.371 l 7.08,-2.243 v 49.016 0"/><path id="path192" style="fill:#ffffff;fill-opacity:1;fill-rule:nonzero;stroke:none" d="m 1190.06,388.984 v -97.441 h 54.45 v 243.77 h -54.45 v -98.372 l -157.91,-0.066 v 98.402 h -54.42 v -98.433 c -24.386,-0.203 -53.164,1.828 -58.789,2.277 L 911.176,440 v -18.906 -35.227 l 6.105,0.539 c 6.407,0.449 35.617,2.41 60.449,2.41 v -97.273 h 54.42 v 97.441 h 157.91 v 0"/><path id="path194" style="fill:#ffffff;fill-opacity:1;fill-rule:nonzero;stroke:none" d="m 1999.15,523.688 c -9.46,2.335 -44.5,12.406 -126.2,12.406 -81.64,0 -126.52,-12.168 -128.13,-12.641 v -86.129 c -26.05,0 -25.77,0 -64.71,0 v -47.246 c 0,0 26.09,0 64.76,0 l -0.18,-85.324 c 1.64,-0.438 43.97,-12.195 125.67,-12.195 81.68,0 117.89,9.921 127.37,12.265 v 48.614 l -8.27,-2.149 c -0.37,-0.098 -37.93,-10.703 -119.46,-10.703 -32.53,0 -55.72,1.484 -70.76,2.91 v 46.473 c 38.68,0.031 116.5,1.222 147.88,-1.934 l 5.7,-0.301 v 52.43 l -8.38,-0.34 c -38.13,-3.722 -108.53,-2.5 -145.19,-2.402 v 47.523 c 15.25,1.489 39.48,3.086 73.3,3.086 81.52,0 118.08,-9.832 118.45,-9.929 l 7.21,-2.004 0.94,-0.27 v 47.86 0"/><path id="path196" style="fill:#ffffff;fill-opacity:1;fill-rule:nonzero;stroke:none" d="m 1620.57,523.688 c -9.45,2.335 -44.5,12.406 -126.19,12.406 -81.65,0 -126.52,-12.168 -128.13,-12.641 v -86.129 c -26.06,0 -25.76,0 -64.7,0 v -47.246 c 0,0 26.08,0 64.74,0 l -0.15,-85.324 c 1.62,-0.438 43.94,-12.195 125.64,-12.195 81.68,0 117.91,9.921 127.37,12.265 v 48.614 l -8.25,-2.149 c -0.39,-0.098 -37.93,-10.703 -119.47,-10.703 -32.52,0 -55.72,1.484 -70.77,2.91 v 46.473 c 38.69,0.031 116.51,1.222 147.88,-1.934 l 5.7,-0.301 v 52.43 l -8.38,-0.34 c -38.12,-3.722 -108.53,-2.5 -145.17,-2.402 v 47.523 c 15.22,1.489 39.45,3.086 73.28,3.086 81.52,0 118.1,-9.832 118.46,-9.929 l 7.19,-2.004 0.95,-0.27 v 47.86 0"/><path id="path198" style="fill:#ffffff;fill-opacity:1;fill-rule:nonzero;stroke:none" d="m 795.492,342.246 c -14.301,-1.25 -37.015,-2.512 -71.793,-2.676 -72.738,-0.343 -118.953,10.645 -119.414,10.743 l -7.015,1.863 0.035,-48.602 4.136,-0.957 c 1.625,-0.402 40.844,-11.074 122.536,-11.074 81.687,0 120.664,10.672 122.293,11.074 l 3.664,1.055 v 133.172 c -84.829,0.07 -189.789,0 -198.801,0 v 47.254 c 15.097,1.527 38.91,3.152 72.363,3.152 75.625,0 126.438,-12.305 126.438,-12.305 v 48.235 c 0,0 -46.133,12.097 -126.571,12.097 -64.453,0 -105.758,-6.812 -122.379,-11.285 l -4.222,-1.082 V 388.926 c 0,0 110.129,0 198.73,0 v -46.68 0"/><path id="path200" style="fill:#bfbebe;fill-opacity:1;fill-rule:nonzero;stroke:none" d="m 1217.21,315.645 -27.28,-24.075 h 54.58 v 243.707 l -27.3,-24.062 v -195.57 0"/><path id="path202" style="fill:#bfbebe;fill-opacity:1;fill-rule:nonzero;stroke:none" d="m 1005.02,412.988 27.13,23.926 v 98.363 l -27.47,-23.726 V 315.605 l -26.93,-24.062 h 54.43 l -0.01,97.441 h 157.89 l 26.86,24.004 h -211.9 v 0"/><path id="path204" style="fill:#bfbebe;fill-opacity:1;fill-rule:nonzero;stroke:none" d="m 934.496,412.891 -23.32,-27.024 7.73,0.617 c 5.645,0.399 34.489,2.469 58.946,2.266 l 26.608,24.141 h -69.964 v 0"/><path id="path206" style="fill:#bfbebe;fill-opacity:1;fill-rule:nonzero;stroke:none" d="m 2081.68,505.281 -0.02,-0.031 -24.11,-30.098 c 18.69,6.571 50.58,11.215 99.94,12.743 l 27.41,24.671 c -46.74,0 -81.34,-3.586 -103.22,-7.285 v 0"/><path id="path208" style="fill:#bfbebe;fill-opacity:1;fill-rule:nonzero;stroke:none" d="m 2185,315.469 -27.51,-22.91 h 54.39 v 195.336 c 49.41,-1.563 87.81,-7.36 102.31,-12.579 v 48.981 l -23.03,-19.387 c -21.9,3.66 -59.42,7.656 -106.16,7.656 v -197.097 0"/><path id="path210" style="fill:#bfbebe;fill-opacity:1;fill-rule:nonzero;stroke:none" d="m 2505.86,515.723 c -62.92,0.507 -107.36,-10.578 -107.36,-10.578 l -24.06,-26.028 c 0,0 62.4,12.879 124.26,12.676 22.34,-0.07 42.2,-1.086 59.29,-2.512 l 57.48,13.02 c -39.12,9.758 -76.87,13.148 -109.61,13.422 v 0"/><path id="path212" style="fill:#bfbebe;fill-opacity:1;fill-rule:nonzero;stroke:none" d="m 2507.76,316.953 c -35.94,-0.265 -83.89,3.535 -120.54,12.41 l -12.78,-24.402 c 0,0 48.34,-12.207 129.41,-12.441 61.86,-0.196 124.4,12.234 124.4,12.234 v 47.766 l -24.07,-25.997 c 0,0 -33.49,-9.082 -96.42,-9.57 v 0"/><path id="path214" style="fill:#bfbebe;fill-opacity:1;fill-rule:nonzero;stroke:none" d="m 2444.74,342.344 v 0 l 183.51,136.566 v 47.793 l -12.78,-24.402 -228.25,-172.938 57.52,12.981 v 0"/><path id="path216" style="fill:#bfbebe;fill-opacity:1;fill-rule:nonzero;stroke:none" d="m 1997.73,304.961 v 48.477 l -24.81,-28.958 c -20.94,-4.07 -56.84,-8.164 -99.61,-8.164 -45.49,0 -79.67,3.555 -101.33,7.629 l -27.21,-19.191 c 1.86,-0.742 46.47,-12.195 125.59,-12.195 81.88,0 118.28,9.89 127.37,12.402 v 0"/><path id="path218" style="fill:#bfbebe;fill-opacity:1;fill-rule:nonzero;stroke:none" d="m 1704.3,413.73 -24.07,-23.691 h 64.64 l 26.99,23.691 h -67.56 v 0"/><path id="path220" style="fill:#bfbebe;fill-opacity:1;fill-rule:nonzero;stroke:none" d="m 1873.13,487.996 c 15.53,0 84.57,0.098 126.02,-12.168 v 47.86 l -23.38,-19.625 c -8.4,1.46 -43.79,7.222 -102.46,7.222 -45.49,0 -79.79,-3.73 -101.39,-7.187 l 0.06,-180.094 27.26,19.434 v 46.601 c 36.82,0.066 115.37,1.387 153.58,-2.305 v 52.43 l -23.73,-26.394 -157.03,-0.04 27.19,23.719 v 47.36 l -0.05,0.035 0.1,0.101 c 11.36,1.559 44.34,3.051 73.83,3.051 v 0"/><path id="path222" style="fill:#bfbebe;fill-opacity:1;fill-rule:nonzero;stroke:none" d="m 1619.15,304.961 v 48.477 l -24.81,-28.958 c -20.95,-4.07 -56.84,-8.164 -99.61,-8.164 -45.5,0 -79.65,3.555 -101.33,7.629 l -27.2,-19.191 c 1.85,-0.742 46.5,-12.195 125.58,-12.195 81.88,0 118.28,9.89 127.37,12.402 v 0"/><path id="path224" style="fill:#bfbebe;fill-opacity:1;fill-rule:nonzero;stroke:none" d="m 1325.72,413.73 -24.07,-23.691 h 64.64 l 27.02,23.691 h -67.59 v 0"/><path id="path226" style="fill:#bfbebe;fill-opacity:1;fill-rule:nonzero;stroke:none" d="m 1494.56,487.996 c 15.52,0 84.57,0.098 126.01,-12.168 v 47.86 l -23.38,-19.625 c -8.4,1.46 -43.8,7.222 -102.46,7.222 -45.5,0 -79.76,-3.73 -101.37,-7.187 l 0.04,-180.094 27.26,19.434 v 46.601 c 36.84,0.066 115.38,1.387 153.58,-2.305 v 52.43 l -23.71,-26.394 -157.05,-0.04 27.21,23.719 v 47.36 l -0.06,0.035 0.12,0.101 c 11.33,1.559 44.31,3.051 73.81,3.051 v 0"/><path id="path228" style="fill:#bfbebe;fill-opacity:1;fill-rule:nonzero;stroke:none" d="m 723.805,487.148 c 75.824,0 126.129,-12.304 126.129,-12.304 v 48.336 l -26.649,-20.032 c -21.59,3.286 -55.418,6.95 -99.597,6.95 -44.29,0 -77.641,-3.223 -99.672,-6.715 l -0.032,-90.297 27.149,23.758 v 47.148 c 15.133,1.531 39.117,3.156 72.672,3.156 v 0"/><path id="path230" style="fill:#bfbebe;fill-opacity:1;fill-rule:nonzero;stroke:none" d="m 823.355,323.203 c -22,-3.457 -55.402,-6.719 -99.75,-6.719 -7.953,0 -15.441,0.176 -22.714,0.371 -3.797,0.137 -7.528,0.235 -11.118,0.411 -5.085,0.203 -9.929,0.468 -14.605,0.781 -21.086,1.387 -37.746,3.621 -50.578,5.586 l -27.285,-20.031 c 0,0 41.25,-12.032 126.3,-12.032 64.633,0 106.04,6.543 122.696,10.989 l 3.633,1.113 v 133.172 l -26.579,-23.66 v -89.981 0"/><path id="path232" style="fill:#bfbebe;fill-opacity:1;fill-rule:nonzero;stroke:none" d="m 623.984,413.086 -27.222,-24.16 H 796 l 27.355,24.16 H 623.984 v 0"/><path id="path234" style="fill:#ffffff;fill-opacity:1;fill-rule:nonzero;stroke:none" d="m 2675.85,275.609 c 0.58,0 1.13,0.02 1.65,0.055 0.5,0.039 0.96,0.145 1.36,0.32 0.4,0.176 0.72,0.446 0.96,0.813 0.24,0.359 0.36,0.871 0.36,1.523 0,0.551 -0.11,0.993 -0.32,1.317 -0.22,0.328 -0.49,0.578 -0.82,0.754 -0.34,0.175 -0.73,0.297 -1.17,0.359 -0.44,0.059 -0.87,0.094 -1.3,0.094 h -3.38 v -5.235 z m 1.14,7.305 c 1.94,0 3.39,-0.391 4.32,-1.168 0.94,-0.773 1.41,-1.957 1.41,-3.535 0,-1.477 -0.41,-2.563 -1.24,-3.254 -0.82,-0.691 -1.85,-1.094 -3.07,-1.223 l 4.7,-7.265 h -2.74 l -4.48,7.07 h -2.7 v -7.07 h -2.54 v 16.445 z m -11.62,-12.957 c 0.58,-1.473 1.4,-2.742 2.44,-3.82 1.04,-1.078 2.27,-1.922 3.69,-2.535 1.42,-0.614 2.96,-0.922 4.62,-0.922 1.63,0 3.15,0.308 4.56,0.922 1.4,0.613 2.63,1.457 3.67,2.535 1.04,1.078 1.86,2.347 2.44,3.82 0.6,1.465 0.89,3.059 0.89,4.789 0,1.68 -0.29,3.246 -0.89,4.703 -0.58,1.449 -1.4,2.707 -2.44,3.774 -1.04,1.07 -2.27,1.91 -3.67,2.519 -1.41,0.613 -2.93,0.922 -4.56,0.922 -1.66,0 -3.2,-0.309 -4.62,-0.922 -1.42,-0.609 -2.65,-1.449 -3.69,-2.519 -1.04,-1.067 -1.86,-2.325 -2.44,-3.774 -0.6,-1.457 -0.89,-3.023 -0.89,-4.703 0,-1.73 0.29,-3.324 0.89,-4.789 z m -2.3,10.316 c 0.74,1.707 1.77,3.184 3.06,4.438 1.3,1.254 2.8,2.238 4.52,2.957 1.71,0.711 3.53,1.066 5.47,1.066 1.93,0 3.75,-0.355 5.45,-1.066 1.71,-0.719 3.2,-1.703 4.47,-2.957 1.28,-1.254 2.29,-2.731 3.05,-4.438 0.75,-1.703 1.13,-3.546 1.13,-5.527 0,-2.027 -0.38,-3.902 -1.13,-5.621 -0.76,-1.715 -1.77,-3.207 -3.05,-4.473 -1.27,-1.265 -2.76,-2.25 -4.47,-2.949 -1.7,-0.703 -3.52,-1.055 -5.45,-1.055 -1.94,0 -3.76,0.352 -5.47,1.055 -1.72,0.699 -3.22,1.684 -4.52,2.949 -1.29,1.266 -2.32,2.758 -3.06,4.473 -0.76,1.719 -1.13,3.594 -1.13,5.621 0,1.981 0.37,3.824 1.13,5.527"/><path id="path236" style="fill:#ffffff;fill-opacity:1;fill-rule:nonzero;stroke:none" d="m 2207.38,72.0508 h -3.29 v 1.1914 h 8.02 v -1.1914 h -3.33 v -9.6485 h -1.4 v 9.6485"/><path id="path238" style="fill:#ffffff;fill-opacity:1;fill-rule:nonzero;stroke:none" d="m 2222.42,67.168 c -0.09,1.5039 -0.19,3.3398 -0.19,4.6679 h -0.04 c -0.37,-1.25 -0.82,-2.6171 -1.36,-4.1211 l -1.9,-5.2539 h -1.06 l -1.79,5.1563 c -0.51,1.543 -0.93,2.9297 -1.22,4.2187 h -0.04 c -0.02,-1.3476 -0.11,-3.1445 -0.21,-4.7851 l -0.28,-4.6485 h -1.34 l 0.76,10.8399 h 1.77 l 1.85,-5.2539 c 0.46,-1.3281 0.82,-2.5195 1.1,-3.6524 h 0.02 c 0.3,1.1133 0.69,2.2852 1.16,3.6524 l 1.94,5.2539 h 1.79 l 0.67,-10.8399 h -1.39 l -0.24,4.7657"/></g></g><script xmlns="" id="bw-fido2-page-script"/></svg>